<?xml version="1.0" encoding="UTF-8" standalone="no"?>
<!DOCTYPE svg PUBLIC "-//W3C//DTD SVG 1.1//EN" "http://www.w3.org/Graphics/SVG/1.1/DTD/svg11.dtd">
<svg width="100%" height="100%" viewBox="0 0 346 70" version="1.1" xmlns="http://www.w3.org/2000/svg" xmlns:xlink="http://www.w3.org/1999/xlink" xml:space="preserve" xmlns:serif="http://www.serif.com/" style="fill-rule:evenodd;clip-rule:evenodd;stroke-linejoin:round;stroke-miterlimit:2;">
    <g transform="matrix(1,0,0,1,-219.413,-660.142)">
        <g transform="matrix(4.16667,0,0,4.16667,0,0)">
            <g transform="matrix(3.0626,0,0,3.0626,86.2021,173.115)">
                <path d="M1.168,-0.7L0.941,-0L0.729,-0L0.595,-0.426L0.455,-0L0.243,-0L0.016,-0.7L0.22,-0.7L0.361,-0.253L0.509,-0.7L0.691,-0.7L0.832,-0.249L0.979,-0.7L1.168,-0.7Z" style="fill:rgb(187,187,187);fill-rule:nonzero;"/>
            </g>
            <g transform="matrix(3.0626,0,0,3.0626,89.7823,173.115)">
                <path d="M0.632,-0.153L0.632,-0L0.07,-0L0.07,-0.7L0.619,-0.7L0.619,-0.547L0.266,-0.547L0.266,-0.429L0.577,-0.429L0.577,-0.281L0.266,-0.281L0.266,-0.153L0.632,-0.153Z" style="fill:rgb(187,187,187);fill-rule:nonzero;"/>
            </g>
            <g transform="matrix(3.0626,0,0,3.0626,91.8403,173.115)">
                <path d="M0.608,-0.365C0.648,-0.351 0.679,-0.329 0.702,-0.3C0.725,-0.27 0.736,-0.234 0.736,-0.192C0.736,-0.131 0.711,-0.083 0.662,-0.05C0.613,-0.017 0.541,-0 0.448,-0L0.07,-0L0.07,-0.7L0.428,-0.7C0.517,-0.7 0.585,-0.684 0.632,-0.651C0.679,-0.618 0.702,-0.573 0.702,-0.517C0.702,-0.484 0.694,-0.454 0.678,-0.428C0.661,-0.401 0.638,-0.38 0.608,-0.365ZM0.266,-0.557L0.266,-0.422L0.402,-0.422C0.469,-0.422 0.502,-0.445 0.502,-0.49C0.502,-0.535 0.469,-0.557 0.402,-0.557L0.266,-0.557ZM0.432,-0.143C0.501,-0.143 0.536,-0.167 0.536,-0.214C0.536,-0.261 0.501,-0.285 0.432,-0.285L0.266,-0.285L0.266,-0.143L0.432,-0.143Z" style="fill:rgb(187,187,187);fill-rule:nonzero;"/>
            </g>
            <g transform="matrix(3.0626,0,0,3.0626,94.1955,173.115)">
                <path d="M0.316,0.014C0.259,0.014 0.204,0.007 0.151,-0.007C0.098,-0.021 0.054,-0.04 0.021,-0.063L0.086,-0.209C0.117,-0.188 0.154,-0.172 0.195,-0.159C0.236,-0.146 0.277,-0.14 0.317,-0.14C0.393,-0.14 0.431,-0.159 0.431,-0.197C0.431,-0.217 0.42,-0.232 0.399,-0.242C0.377,-0.251 0.342,-0.261 0.294,-0.272C0.241,-0.283 0.197,-0.296 0.162,-0.309C0.127,-0.322 0.096,-0.342 0.071,-0.371C0.046,-0.4 0.033,-0.438 0.033,-0.487C0.033,-0.53 0.045,-0.568 0.068,-0.603C0.091,-0.637 0.126,-0.664 0.173,-0.684C0.219,-0.704 0.276,-0.714 0.343,-0.714C0.389,-0.714 0.434,-0.709 0.479,-0.699C0.524,-0.688 0.563,-0.673 0.597,-0.653L0.536,-0.506C0.469,-0.542 0.405,-0.56 0.342,-0.56C0.303,-0.56 0.274,-0.554 0.256,-0.543C0.238,-0.531 0.229,-0.516 0.229,-0.497C0.229,-0.478 0.24,-0.464 0.261,-0.455C0.282,-0.446 0.317,-0.436 0.364,-0.426C0.417,-0.415 0.462,-0.403 0.497,-0.39C0.532,-0.377 0.562,-0.356 0.588,-0.328C0.613,-0.299 0.626,-0.261 0.626,-0.212C0.626,-0.17 0.614,-0.132 0.591,-0.098C0.568,-0.064 0.533,-0.037 0.486,-0.017C0.439,0.004 0.383,0.014 0.316,0.014Z" style="fill:rgb(187,187,187);fill-rule:nonzero;"/>
            </g>
            <g transform="matrix(3.0626,0,0,3.0626,96.177,173.115)">
                <rect x="0.07" y="-0.7" width="0.198" height="0.7" style="fill:rgb(187,187,187);fill-rule:nonzero;"/>
            </g>
            <g transform="matrix(3.0626,0,0,3.0626,97.2152,173.115)">
                <path d="M0.219,-0.543L0.004,-0.543L0.004,-0.7L0.631,-0.7L0.631,-0.543L0.417,-0.543L0.417,-0L0.219,-0L0.219,-0.543Z" style="fill:rgb(187,187,187);fill-rule:nonzero;"/>
            </g>
            <g transform="matrix(3.0626,0,0,3.0626,99.16,173.115)">
                <path d="M0.632,-0.153L0.632,-0L0.07,-0L0.07,-0.7L0.619,-0.7L0.619,-0.547L0.266,-0.547L0.266,-0.429L0.577,-0.429L0.577,-0.281L0.266,-0.281L0.266,-0.153L0.632,-0.153Z" style="fill:rgb(187,187,187);fill-rule:nonzero;"/>
            </g>
            <g transform="matrix(3.0626,0,0,3.0626,102.109,173.115)">
                <path d="M0.07,-0.7L0.401,-0.7C0.478,-0.7 0.546,-0.686 0.605,-0.657C0.664,-0.628 0.71,-0.588 0.743,-0.535C0.776,-0.482 0.792,-0.421 0.792,-0.35C0.792,-0.279 0.776,-0.218 0.743,-0.165C0.71,-0.112 0.664,-0.072 0.605,-0.043C0.546,-0.014 0.478,-0 0.401,-0L0.07,-0L0.07,-0.7ZM0.393,-0.158C0.453,-0.158 0.501,-0.175 0.538,-0.209C0.574,-0.243 0.592,-0.29 0.592,-0.35C0.592,-0.41 0.574,-0.457 0.538,-0.491C0.501,-0.525 0.453,-0.542 0.393,-0.542L0.268,-0.542L0.268,-0.158L0.393,-0.158Z" style="fill:rgb(187,187,187);fill-rule:nonzero;"/>
            </g>
            <g transform="matrix(3.0626,0,0,3.0626,104.639,173.115)">
                <path d="M0.632,-0.153L0.632,-0L0.07,-0L0.07,-0.7L0.619,-0.7L0.619,-0.547L0.266,-0.547L0.266,-0.429L0.577,-0.429L0.577,-0.281L0.266,-0.281L0.266,-0.153L0.632,-0.153Z" style="fill:rgb(187,187,187);fill-rule:nonzero;"/>
            </g>
            <g transform="matrix(3.0626,0,0,3.0626,106.666,173.115)">
                <path d="M0.78,-0.7L0.48,-0L0.285,-0L-0.014,-0.7L0.2,-0.7L0.39,-0.244L0.584,-0.7L0.78,-0.7Z" style="fill:rgb(187,187,187);fill-rule:nonzero;"/>
            </g>
            <g transform="matrix(3.0626,0,0,3.0626,108.966,173.115)">
                <path d="M0.632,-0.153L0.632,-0L0.07,-0L0.07,-0.7L0.619,-0.7L0.619,-0.547L0.266,-0.547L0.266,-0.429L0.577,-0.429L0.577,-0.281L0.266,-0.281L0.266,-0.153L0.632,-0.153Z" style="fill:rgb(187,187,187);fill-rule:nonzero;"/>
            </g>
            <g transform="matrix(3.0626,0,0,3.0626,111.024,173.115)">
                <path d="M0.07,-0.7L0.268,-0.7L0.268,-0.157L0.602,-0.157L0.602,-0L0.07,-0L0.07,-0.7Z" style="fill:rgb(187,187,187);fill-rule:nonzero;"/>
            </g>
            <g transform="matrix(3.0626,0,0,3.0626,112.859,173.115)">
                <path d="M0.423,0.014C0.349,0.014 0.283,-0.002 0.224,-0.033C0.165,-0.064 0.118,-0.108 0.085,-0.163C0.051,-0.218 0.034,-0.281 0.034,-0.35C0.034,-0.419 0.051,-0.482 0.085,-0.537C0.118,-0.592 0.165,-0.636 0.224,-0.667C0.283,-0.698 0.349,-0.714 0.423,-0.714C0.497,-0.714 0.564,-0.698 0.623,-0.667C0.682,-0.636 0.728,-0.592 0.762,-0.537C0.795,-0.482 0.812,-0.419 0.812,-0.35C0.812,-0.281 0.795,-0.218 0.762,-0.163C0.728,-0.108 0.682,-0.064 0.623,-0.033C0.564,-0.002 0.497,0.014 0.423,0.014ZM0.423,-0.15C0.458,-0.15 0.49,-0.158 0.519,-0.175C0.548,-0.192 0.57,-0.215 0.587,-0.246C0.604,-0.276 0.612,-0.311 0.612,-0.35C0.612,-0.389 0.604,-0.424 0.587,-0.455C0.57,-0.485 0.548,-0.508 0.519,-0.525C0.49,-0.542 0.458,-0.55 0.423,-0.55C0.388,-0.55 0.356,-0.542 0.327,-0.525C0.298,-0.508 0.276,-0.485 0.259,-0.455C0.242,-0.424 0.234,-0.389 0.234,-0.35C0.234,-0.311 0.242,-0.276 0.259,-0.246C0.276,-0.215 0.298,-0.192 0.327,-0.175C0.356,-0.158 0.388,-0.15 0.423,-0.15Z" style="fill:rgb(187,187,187);fill-rule:nonzero;"/>
            </g>
            <g transform="matrix(3.0626,0,0,3.0626,115.45,173.115)">
                <path d="M0.39,-0.7C0.453,-0.7 0.508,-0.69 0.555,-0.669C0.602,-0.648 0.638,-0.618 0.663,-0.579C0.688,-0.54 0.701,-0.494 0.701,-0.441C0.701,-0.388 0.688,-0.343 0.663,-0.304C0.638,-0.265 0.602,-0.236 0.555,-0.215C0.508,-0.194 0.453,-0.183 0.39,-0.183L0.268,-0.183L0.268,-0L0.07,-0L0.07,-0.7L0.39,-0.7ZM0.378,-0.339C0.419,-0.339 0.449,-0.348 0.47,-0.366C0.491,-0.383 0.501,-0.408 0.501,-0.441C0.501,-0.474 0.491,-0.499 0.47,-0.517C0.449,-0.535 0.419,-0.544 0.378,-0.544L0.268,-0.544L0.268,-0.339L0.378,-0.339Z" style="fill:rgb(187,187,187);fill-rule:nonzero;"/>
            </g>
            <g transform="matrix(3.0626,0,0,3.0626,117.676,173.115)">
                <path d="M0.632,-0.153L0.632,-0L0.07,-0L0.07,-0.7L0.619,-0.7L0.619,-0.547L0.266,-0.547L0.266,-0.429L0.577,-0.429L0.577,-0.281L0.266,-0.281L0.266,-0.153L0.632,-0.153Z" style="fill:rgb(187,187,187);fill-rule:nonzero;"/>
            </g>
            <g transform="matrix(3.0626,0,0,3.0626,119.735,173.115)">
                <path d="M0.376,-0.186L0.268,-0.186L0.268,-0L0.07,-0L0.07,-0.7L0.39,-0.7C0.453,-0.7 0.508,-0.69 0.555,-0.669C0.602,-0.648 0.638,-0.618 0.663,-0.579C0.688,-0.54 0.701,-0.494 0.701,-0.441C0.701,-0.39 0.689,-0.346 0.666,-0.309C0.642,-0.271 0.608,-0.241 0.564,-0.22L0.715,-0L0.503,-0L0.376,-0.186ZM0.501,-0.441C0.501,-0.474 0.491,-0.499 0.47,-0.517C0.449,-0.535 0.419,-0.544 0.378,-0.544L0.268,-0.544L0.268,-0.339L0.378,-0.339C0.419,-0.339 0.449,-0.348 0.47,-0.366C0.491,-0.383 0.501,-0.408 0.501,-0.441Z" style="fill:rgb(187,187,187);fill-rule:nonzero;"/>
            </g>
        </g>
        <g transform="matrix(4.16667,0,0,4.16667,0,0)">
            <g transform="matrix(9.0216,0,0,9.0216,85.7871,167.002)">
                <path d="M0.07,-0.7L0.401,-0.7C0.478,-0.7 0.546,-0.686 0.605,-0.657C0.664,-0.628 0.71,-0.588 0.743,-0.535C0.776,-0.482 0.792,-0.421 0.792,-0.35C0.792,-0.279 0.776,-0.218 0.743,-0.165C0.71,-0.112 0.664,-0.072 0.605,-0.043C0.546,-0.014 0.478,-0 0.401,-0L0.07,-0L0.07,-0.7ZM0.393,-0.158C0.453,-0.158 0.501,-0.175 0.538,-0.209C0.574,-0.243 0.592,-0.29 0.592,-0.35C0.592,-0.41 0.574,-0.457 0.538,-0.491C0.501,-0.525 0.453,-0.542 0.393,-0.542L0.268,-0.542L0.268,-0.158L0.393,-0.158Z" style="fill:white;fill-rule:nonzero;"/>
            </g>
            <g transform="matrix(9.0216,0,0,9.0216,93.2389,167.002)">
                <path d="M0.423,0.014C0.349,0.014 0.283,-0.002 0.224,-0.033C0.165,-0.064 0.118,-0.108 0.085,-0.163C0.051,-0.218 0.034,-0.281 0.034,-0.35C0.034,-0.419 0.051,-0.482 0.085,-0.537C0.118,-0.592 0.165,-0.636 0.224,-0.667C0.283,-0.698 0.349,-0.714 0.423,-0.714C0.497,-0.714 0.564,-0.698 0.623,-0.667C0.682,-0.636 0.728,-0.592 0.762,-0.537C0.795,-0.482 0.812,-0.419 0.812,-0.35C0.812,-0.281 0.795,-0.218 0.762,-0.163C0.728,-0.108 0.682,-0.064 0.623,-0.033C0.564,-0.002 0.497,0.014 0.423,0.014ZM0.423,-0.15C0.458,-0.15 0.49,-0.158 0.519,-0.175C0.548,-0.192 0.57,-0.215 0.587,-0.246C0.604,-0.276 0.612,-0.311 0.612,-0.35C0.612,-0.389 0.604,-0.424 0.587,-0.455C0.57,-0.485 0.548,-0.508 0.519,-0.525C0.49,-0.542 0.458,-0.55 0.423,-0.55C0.388,-0.55 0.356,-0.542 0.327,-0.525C0.298,-0.508 0.276,-0.485 0.259,-0.455C0.242,-0.424 0.234,-0.389 0.234,-0.35C0.234,-0.311 0.242,-0.276 0.259,-0.246C0.276,-0.215 0.298,-0.192 0.327,-0.175C0.356,-0.158 0.388,-0.15 0.423,-0.15Z" style="fill:white;fill-rule:nonzero;"/>
            </g>
            <g transform="matrix(9.0216,0,0,9.0216,100.871,167.002)">
                <path d="M0.736,-0.7L0.736,-0L0.573,-0L0.264,-0.373L0.264,-0L0.07,-0L0.07,-0.7L0.233,-0.7L0.542,-0.327L0.542,-0.7L0.736,-0.7Z" style="fill:white;fill-rule:nonzero;"/>
            </g>
            <g transform="matrix(9.0216,0,0,9.0216,108.143,167.002)">
                <path d="M0.539,-0.136L0.243,-0.136L0.188,-0L-0.014,-0L0.295,-0.7L0.49,-0.7L0.8,-0L0.594,-0L0.539,-0.136ZM0.481,-0.282L0.391,-0.506L0.301,-0.282L0.481,-0.282Z" style="fill:white;fill-rule:nonzero;"/>
            </g>
            <g transform="matrix(9.0216,0,0,9.0216,115.234,167.002)">
                <path d="M0.07,-0.7L0.268,-0.7L0.268,-0.157L0.602,-0.157L0.602,-0L0.07,-0L0.07,-0.7Z" style="fill:white;fill-rule:nonzero;"/>
            </g>
            <g transform="matrix(9.0216,0,0,9.0216,120.737,167.002)">
                <path d="M0.07,-0.7L0.401,-0.7C0.478,-0.7 0.546,-0.686 0.605,-0.657C0.664,-0.628 0.71,-0.588 0.743,-0.535C0.776,-0.482 0.792,-0.421 0.792,-0.35C0.792,-0.279 0.776,-0.218 0.743,-0.165C0.71,-0.112 0.664,-0.072 0.605,-0.043C0.546,-0.014 0.478,-0 0.401,-0L0.07,-0L0.07,-0.7ZM0.393,-0.158C0.453,-0.158 0.501,-0.175 0.538,-0.209C0.574,-0.243 0.592,-0.29 0.592,-0.35C0.592,-0.41 0.574,-0.457 0.538,-0.491C0.501,-0.525 0.453,-0.542 0.393,-0.542L0.268,-0.542L0.268,-0.158L0.393,-0.158Z" style="fill:white;fill-rule:nonzero;"/>
            </g>
            <g transform="matrix(9.0216,0,0,9.0216,128.189,167.002)">
                <path d="M0.423,0.014C0.349,0.014 0.283,-0.002 0.224,-0.033C0.165,-0.064 0.118,-0.108 0.085,-0.163C0.051,-0.218 0.034,-0.281 0.034,-0.35C0.034,-0.419 0.051,-0.482 0.085,-0.537C0.118,-0.592 0.165,-0.636 0.224,-0.667C0.283,-0.698 0.349,-0.714 0.423,-0.714C0.497,-0.714 0.564,-0.698 0.623,-0.667C0.682,-0.636 0.728,-0.592 0.762,-0.537C0.795,-0.482 0.812,-0.419 0.812,-0.35C0.812,-0.281 0.795,-0.218 0.762,-0.163C0.728,-0.108 0.682,-0.064 0.623,-0.033C0.564,-0.002 0.497,0.014 0.423,0.014ZM0.423,-0.15C0.458,-0.15 0.49,-0.158 0.519,-0.175C0.548,-0.192 0.57,-0.215 0.587,-0.246C0.604,-0.276 0.612,-0.311 0.612,-0.35C0.612,-0.389 0.604,-0.424 0.587,-0.455C0.57,-0.485 0.548,-0.508 0.519,-0.525C0.49,-0.542 0.458,-0.55 0.423,-0.55C0.388,-0.55 0.356,-0.542 0.327,-0.525C0.298,-0.508 0.276,-0.485 0.259,-0.455C0.242,-0.424 0.234,-0.389 0.234,-0.35C0.234,-0.311 0.242,-0.276 0.259,-0.246C0.276,-0.215 0.298,-0.192 0.327,-0.175C0.356,-0.158 0.388,-0.15 0.423,-0.15Z" style="fill:white;fill-rule:nonzero;"/>
            </g>
        </g>
        <g transform="matrix(4.16667,0,0,4.16667,0,0)">
            <g transform="matrix(16.4332,7.64716,7.64716,-16.4332,55.8896,161.127)">
                <path d="M0.316,-0.012L1.007,-0.012C1.026,0.03 1.027,0.08 1.006,0.126C0.967,0.209 0.868,0.245 0.785,0.206L0.316,-0.012Z" style="fill:white;fill-rule:nonzero;"/>
            </g>
        </g>
        <g transform="matrix(4.16667,0,0,4.16667,0,0)">
            <g transform="matrix(21.4395,0,0,-21.4395,55.4613,168.584)">
                <path d="M0.711,0.303C0.835,0.303 0.934,0.2 0.929,0.075C0.923,-0.043 0.822,-0.133 0.705,-0.133L0.256,-0.133C0.24,-0.133 0.227,-0.145 0.227,-0.161C0.227,-0.177 0.24,-0.189 0.256,-0.189L0.38,-0.189C0.394,-0.189 0.407,-0.199 0.409,-0.213C0.412,-0.231 0.398,-0.246 0.381,-0.246L0.096,-0.246C0.08,-0.246 0.068,-0.259 0.068,-0.275C0.068,-0.29 0.08,-0.303 0.096,-0.303L0.749,-0.303C0.92,-0.303 1.058,-0.161 1.052,0.011C1.046,0.175 0.906,0.303 0.742,0.303L0.711,0.303Z" style="fill:white;fill-rule:nonzero;"/>
            </g>
        </g>
        <g transform="matrix(4.16667,0,0,4.16667,0,0)">
            <g transform="matrix(16.9901,0,0,-16.9901,63.7281,166.758)">
                <path d="M0.247,0.49C0.227,0.49 0.211,0.474 0.211,0.454C0.211,0.434 0.227,0.418 0.247,0.418L0.403,0.418C0.421,0.418 0.438,0.406 0.441,0.389C0.444,0.366 0.427,0.347 0.405,0.347L0.046,0.347C0.026,0.347 0.01,0.331 0.01,0.311C0.01,0.291 0.026,0.275 0.046,0.275L0.45,0.275C0.657,0.275 0.834,0.114 0.841,-0.093C0.849,-0.311 0.675,-0.49 0.459,-0.49L0.475,-0.49C0.742,-0.49 0.959,-0.276 0.964,-0.009C0.97,0.268 0.732,0.49 0.475,0.49L0.247,0.49Z" style="fill:white;fill-rule:nonzero;"/>
            </g>
        </g>
        <g transform="matrix(4.16667,0,0,4.16667,0,0)">
            <g transform="matrix(20.2177,0,0,-20.2177,50.0312,166.757)">
                <path d="M0.498,0.149C0.482,0.149 0.468,0.136 0.468,0.12C0.468,0.103 0.482,0.09 0.498,0.09L0.63,0.09C0.645,0.09 0.659,0.08 0.661,0.065C0.664,0.046 0.65,0.03 0.632,0.03L0.329,0.03C0.313,0.03 0.299,0.016 0.299,-0C0.299,-0.016 0.313,-0.03 0.329,-0.03L0.461,-0.03C0.476,-0.03 0.49,-0.04 0.492,-0.055C0.495,-0.073 0.481,-0.09 0.463,-0.09L0.16,-0.09C0.143,-0.09 0.13,-0.103 0.13,-0.119C0.13,-0.136 0.143,-0.149 0.16,-0.149L1.006,-0.149C1.043,-0.149 1.078,-0.135 1.104,-0.112L0.542,0.149L0.498,0.149Z" style="fill:white;fill-rule:nonzero;"/>
            </g>
        </g>
    </g>
</svg>
